<svg xmlns="http://www.w3.org/2000/svg" xmlns:xlink="http://www.w3.org/1999/xlink" fill="none" version="1.1" width="564" height="100" viewBox="0 0 564 100"><defs><linearGradient x1="0.15280546247959137" y1="-0.7427829504013062" x2="1.0544968843460083" y2="1.840320348739624" id="master_svg0_1_6907"><stop offset="0%" stop-color="#0A6BFF" stop-opacity="1"/><stop offset="44.34598088264465%" stop-color="#005BFF" stop-opacity="1"/><stop offset="100%" stop-color="#002978" stop-opacity="1"/></linearGradient><linearGradient x1="0.20838627219200134" y1="0.29988551139831543" x2="1.2071454524993896" y2="1.8337820768356323" id="master_svg1_1_6912"><stop offset="0%" stop-color="#000000" stop-opacity="0.3400000035762787"/><stop offset="100%" stop-color="#000000" stop-opacity="0.11999999731779099"/></linearGradient><linearGradient x1="-2.100346088409424" y1="-0.48609867691993713" x2="1.7196837663650513" y2="1" id="master_svg2_1_6904"><stop offset="0%" stop-color="#000000" stop-opacity="0.18000000715255737"/><stop offset="100%" stop-color="#000000" stop-opacity="0.019999999552965164"/></linearGradient></defs><g><g></g><g><g><path d="M42.8644,14C54.047,14,63.3863,21.87509,65.6164,32.3707C67.5116,31.0319,69.8261,30.2457,72.3245,30.2457C78.2582,30.2457,83.1539,34.6802,83.8648,40.4092C95.6602,41.531800000000004,104.886,51.4462,104.886,63.5107C104.886,76.20009999999999,94.68,86.5108,82.0123,86.7158L81.6277,86.7189L80.8524,86.719L80.4046,86.7156C67.1163,86.518,55.9599,77.5413,52.5011,65.3392L52.3987,64.9684L67.0821,66.3983L44.3365,38.4005L39.5472,73.7853L51.7034,65.0851C52.8412,73.55539999999999,57.0314,81.0611,63.1337,86.4642L63.4249,86.7188L23.4827,86.7189L23.4833,86.7063C10.99687,86.2985,1,76.06960000000001,1,63.5107C1,52.19,9.12305,42.7624,19.8703,40.715C19.6965,39.5717,19.6064,38.400400000000005,19.6064,37.208200000000005C19.6064,24.3906,30.0194,14,42.8644,14Z" fill-rule="evenodd" fill="url(#master_svg0_1_6907)" fill-opacity="1"/></g><g><path d="M97.13305340576171,57.3218994140625C99.64565340576172,57.3218994140625,102.06525340576172,57.7194894140625,104.33205340576171,58.4550594140625C104.69465340576173,60.0829894140625,104.88575340576172,61.7745994140625,104.88575340576172,63.5107394140625C104.88575340576172,76.20009941406249,94.67995340576172,86.5107994140625,82.01233340576172,86.7157994140625L81.62772340576171,86.71889941406249L80.85237340576172,86.7189994140625L80.40455340576172,86.7155994140625C78.39310340576172,86.6856994140625,76.43050340576171,86.4545994140625,74.53604740576172,86.0415994140625C74.10369440576171,84.27539941406249,73.87505340576172,82.4293994140625,73.87505340576172,80.5300994140625C73.87505340576172,67.7124994140625,84.28805340576172,57.3218994140625,97.13305340576171,57.3218994140625Z" fill-rule="evenodd" fill="url(#master_svg1_1_6912)" fill-opacity="1"/></g><g><path d="M42.86434854736328,14C53.93514854736328,14,63.19934854736328,21.71838,65.54734854736327,32.0566L65.57464854736328,32.181799999999996C59.58984854736328,35.811,55.00374854736328,41.5082,52.81234854736328,48.2794L52.686248547363284,48.6789L44.33654854736328,38.4005L39.54724854736328,73.7853L51.703348547363284,65.0851C52.83854854736328,73.53620000000001,57.012448547363284,81.027,63.09214854736328,86.4274L63.42564854736328,86.7199L59.58574854736328,86.72C38.213048547363286,81.4279,21.98925854736328,63.1234,19.847024547363283,40.719899999999996L19.87034054736328,40.715L19.80634054736328,40.2745C19.70038654736328,39.0576,19.63594884736328,37.828900000000004,19.61444854736328,36.5898C19.94302654736328,24.0581,30.22654854736328,14,42.86434854736328,14Z" fill-rule="evenodd" fill="url(#master_svg2_1_6904)" fill-opacity="1"/></g><g><path d="M72.32448000488282,30.245712280273438C78.25818000488282,30.245712280273438,83.15388000488281,34.68024228027344,83.86478000488282,40.40921228027344C94.50748000488281,41.422012280273435,103.0578800048828,49.592212280273436,104.62758000488282,60.04121228027344L104.54608000488281,59.53701228027344L104.54608000488281,59.53701228027344L104.45388000488282,59.03651228027344L104.33208000488281,58.45511228027344C102.06528000488282,57.719512280273435,99.64568000488282,57.32191228027344,97.13308000488281,57.32191228027344C84.28798000488281,57.32191228027344,73.87508000488282,67.71251228027344,73.87508000488282,80.53011228027344C73.87508000488282,82.42911228027344,74.10368000488282,84.27481228027344,74.53528000488281,86.04141228027343L74.20138000488281,85.96661228027344L73.80638000488281,85.87281228027344L73.35368000488282,85.75811228027344L72.97638000488281,85.65661228027344L72.54488000488281,85.53391228027344L71.9260800048828,85.34531228027345L71.49828000488282,85.20611228027343C71.18998000488281,85.10311228027344,70.88378000488281,84.99521228027344,70.57988000488281,84.88241228027343L70.12588000488282,84.70951228027343L69.75158000488281,84.56041228027344L69.34078000488282,84.38991228027344C69.05768000488281,84.26991228027345,68.77678000488281,84.14551228027344,68.49818000488281,84.01691228027343L68.0099800048828,83.78611228027344L68.0099800048828,83.78611228027344L67.65938000488282,83.61351228027344L67.65938000488282,83.61351228027344L67.22908000488282,83.39361228027343L67.22908000488282,83.39361228027343L66.8027800048828,83.16691228027344L66.40708000488281,82.94831228027343L66.40708000488281,82.94831228027343L65.99938000488281,82.71471228027343L65.59638000488282,82.47521228027344L65.22428000488281,82.24611228027344L65.00728000488282,82.10901228027345L64.51038000488282,81.78511228027344L64.11328000488281,81.51571228027345L63.72848000488281,81.24561228027343L63.72848000488281,81.24561228027343L63.41878000488281,81.02141228027344L63.41878000488281,81.02141228027344L62.96048000488281,80.67831228027345L62.96048000488281,80.67831228027345L62.65628000488282,80.44271228027344L62.42018000488281,80.25551228027344L62.00055000488281,79.91291228027345L62.00055000488281,79.91291228027345L61.580720004882814,79.55701228027344L61.580720004882814,79.55701228027344L61.293650004882814,79.30581228027344L60.958930004882816,79.00451228027345C60.728180004882816,78.79361228027344,60.500940004882814,78.57921228027344,60.27721000488281,78.36131228027344L59.94425000488281,78.03181228027344L59.66255000488281,77.74481228027344L59.334550004882814,77.40051228027343L59.334550004882814,77.40051228027343L59.01208000488281,77.05101228027344L58.70182000488281,76.70371228027344L58.42403000488281,76.38331228027343C58.22471000488281,76.15001228027344,58.02876000488281,75.91331228027343,57.836430004882814,75.67341228027344L57.53559000488281,75.29181228027343L57.53559000488281,75.29181228027343L57.38919000488281,75.10131228027345C57.26239000488281,74.93501228027344,57.13704000488281,74.76681228027343,57.013460004882816,74.59731228027343L56.75360000488281,74.23521228027343L56.75360000488281,74.23521228027343L56.49928000488281,73.86921228027344C56.31180000488281,73.59501228027344,56.12888000488281,73.31751228027343,55.95061000488281,73.03681228027344L55.68642000488281,72.61291228027343C55.536980004882814,72.36851228027344,55.39089000488281,72.12161228027344,55.24831000488281,71.87231228027343L55.03700000488281,71.49651228027344C54.84213000488281,71.14391228027344,54.65422000488281,70.78661228027343,54.47355000488281,70.42521228027343L54.30302000488281,70.07841228027344L54.19949000488281,69.86191228027343L54.042870004882815,69.52551228027343L53.83281000488281,69.05601228027344L53.83281000488281,69.05601228027344L53.64221000488281,68.60951228027344L53.64221000488281,68.60951228027344C53.42471000488281,68.08791228027343,53.22179900488281,67.55881228027343,53.03401400488281,67.02251228027345L52.85129000488281,66.48391228027344L52.73214400488281,66.11301228027344C52.61361500488281,65.73491228027343,52.50243600488281,65.35331228027343,52.39888000488281,64.96871228027344L67.08218000488282,66.39821228027344L52.686442004882814,48.67811228027344C54.82474000488281,41.731912280273434,59.47273000488281,35.88202228027344,65.57468000488281,32.18180228027344L65.61638000488281,32.370682280273435C67.5116800048828,31.031936280273438,69.82608000488281,30.245712280273438,72.32448000488282,30.245712280273438Z" fill-rule="evenodd" fill="#000000" fill-opacity="0.15000000596046448"/></g><g><path d="M44.33653306396484,38.40047264099121L67.08210306396484,66.39827264099121L52.398703063964845,64.96847264099121C55.73480306396485,77.35897264099121,66.98210306396484,86.51597264099121,80.40460306396484,86.71557264099121L80.85240306396484,86.71897264099121L63.425703063964846,86.71987264099121C57.16520306396484,81.29907264099121,52.85920306396484,73.68987264099121,51.70340306396484,65.08507264099121L39.547203063964844,73.78537264099121L44.33653306396484,38.40047264099121Z" fill-rule="evenodd" fill="#FFFFFF" fill-opacity="1"/></g></g><g><path d="M319.9791015625,68.995063671875C317.3121015625,69.81196367187499,314.38810156249997,70.220463671875,311.2081015625,70.220463671875C305.36110156250004,70.220463671875,300.8481015625,68.382263671875,297.61610156250003,64.705863671875C294.59010156249997,61.284663671874995,293.1031015625,56.842363671875,293.1031015625,51.429763671875C293.1031015625,45.966263671875,294.59010156249997,41.472793671874996,297.61610156250003,37.949543671875C300.7961015625,34.170983671875,305.1051015625,32.332763671875,310.4901015625,32.332763671875C315.1581015625,32.332763671875,318.8511015625,33.353993671875,321.5691015625,35.498583671875C324.1851015625,37.541053671875,325.8261015625,40.553683671875,326.4931015625,44.638663671875L320.8511015625,44.638663671875Q320.0821015625,40.962183671874996,317.4661015625,39.123963671875C315.72210156250003,37.847423671875,313.3631015625,37.234683671875,310.4901015625,37.234683671875C306.9511015625,37.234683671875,304.1301015625,38.409093671875,302.0271015625,40.860053671875C299.7711015625,43.413163671875,298.6941015625,46.936363671875,298.6941015625,51.429763671875C298.6941015625,55.821063671874995,299.6681015625,59.191163671875,301.72010156249996,61.540063671875004C303.87410156249996,64.093063671875,307.2591015625,65.369663671875,311.8241015625,65.369663671875C313.61910156249996,65.369663671875,315.3121015625,65.114363671875,316.9021015625,64.705863671875C318.4401015625,64.297363671875,319.7741015625,63.684563671875,321.0051015625,62.918663671874995L321.0051015625,55.004163671875L310.9011015625,55.004163671875L310.9011015625,50.255363671875L326.5961015625,50.255363671875L326.5961015625,65.573863671875C324.6981015625,67.054663671875,322.4921015625,68.17806367187501,319.9791015625,68.995063671875ZM544.8721015625,64.69376367187499L544.8721015625,69.609363671875L519.8171015625,69.609363671875C519.8171015625,65.973863671875,520.9891015625001,62.799263671874996,523.4331015625,60.034263671874996C524.7571015625,58.446863671875,527.5071015625,56.245063671875,531.6321015625,53.377663671875C534.0761015625001,51.636763671875,535.8081015625,50.254263671875,536.8261015625001,49.178963671874996C538.4561015625,47.335563671875,539.3211015625,45.338663671875,539.3211015625,43.188063671875C539.3211015625,41.139883671875,538.7611015625,39.603753671875,537.6411015625,38.579673671875C536.5201015625,37.555593671875,534.8401015625,37.043543671875,532.7011015625001,37.043543671875C530.4101015625,37.043543671875,528.6781015624999,37.811613671875,527.5071015625,39.398943671875C526.2851015625,40.935063671875,525.6741015625,43.136863671875,525.5721015624999,46.106663671875L520.0211015625,46.106663671875C520.0721015624999,42.010353671875,521.2431015625,38.733283671875,523.5351015625,36.275483671875C525.8771015625,33.612863671875,529.0351015625,32.332763671875,532.9051015625,32.332763671875C536.3681015625,32.332763671875,539.2701015625,33.305642671875,541.5111015625,35.353813671875C543.7011015625001,37.401973671875,544.8211015625,40.013393671875,544.8211015625,43.239263671875C544.8211015625,46.413863671875,543.5991015625,49.281363671875,541.2561015625,51.892763671875C539.8311015625,53.377663671875,537.3351015625,55.323463671875004,533.7201015625001,57.781263671874996C529.7981015625,60.392663671875,527.4561015625,62.696863671875,526.6921015625,64.69376367187499L544.8721015625,64.69376367187499ZM142.5449015625,70.102963671875C148.4356015625,70.102963671875,152.8921015625,68.437563671875,155.9655015625,65.106763671875C158.8853015625,61.880063671875,160.3708015625,57.352263671875,160.3708015625,51.523363671875C160.3708015625,45.642463671875,158.93650156249998,41.114693671875,156.0680015625,37.992073671875C152.9946015625,34.609243671875,148.5381015625,32.943847671875,142.6473015625,32.943847671875L129.3291015625,32.943847671875L129.3291015625,70.102963671875L142.5449015625,70.102963671875ZM174.4061015625,70.831563671875C178.6064015625,70.831563671875,181.6799015625,69.68666367187501,183.6264015625,67.500763671875C185.3168015625,65.419063671875,186.1876015625,62.296463671875,186.1876015625,58.132963671875004L186.1876015625,32.943847671875L180.6042015625,32.943847671875L180.6042015625,57.924763671875C180.6042015625,60.683063671875004,180.0919015625,62.660763671875,179.1699015625,63.909763671875C178.1966015625,65.158863671875,176.6599015625,65.835363671875,174.5085015625,65.835363671875C170.7180015625,65.835363671875,168.82270156250001,63.597563671875,168.82270156250001,59.173863671875L168.82270156250001,57.976863671875L163.2393015625,57.976863671875L163.2393015625,59.225863671875004C163.2393015625,62.868863671875005,164.2125015625,65.67926367187499,166.1590015625,67.760963671875C168.0031015625,69.790663671875,170.7692015625,70.831563671875,174.4061015625,70.831563671875ZM198.9936015625,32.943847671875L193.4614015625,32.943847671875L193.4614015625,70.102963671875L198.9936015625,70.102963671875L198.9936015625,32.943847671875ZM227.1947015625,53.165963671875005L227.1947015625,69.505663671875L221.6040015625,69.505663671875L221.6040015625,33.047637671875L246.4801015625,33.047637671875L246.4801015625,37.796373671875L227.1947015625,37.796373671875L227.1947015625,48.417163671875L245.4031015625,48.417163671875L245.4031015625,53.165963671875005L227.1947015625,53.165963671875005ZM277.10010156249996,69.505663671875L277.10010156249996,64.75686367187501L256.94310156250003,64.75686367187501L256.94310156250003,33.047637671875L251.4041015625,33.047637671875L251.4041015625,69.505663671875L277.10010156249996,69.505663671875ZM287.3581015625,69.505663671875L287.3581015625,33.047637671875L281.8191015625,33.047637671875L281.8191015625,69.505663671875L287.3581015625,69.505663671875ZM338.9051015625,53.165963671875005L338.9051015625,69.505663671875L333.3141015625,69.505663671875L333.3141015625,33.047637671875L338.9051015625,33.047637671875L338.9051015625,48.417163671875L358.0881015625,48.417163671875L358.0881015625,33.047637671875L363.6781015625,33.047637671875L363.6781015625,69.505663671875L358.0881015625,69.505663671875L358.0881015625,53.165963671875005L338.9051015625,53.165963671875005ZM385.8361015625,37.796373671875L385.8361015625,69.505663671875L380.2961015625,69.505663671875L380.2961015625,37.796373671875L368.0381015625,37.796373671875L368.0381015625,33.047637671875L398.0431015625,33.047637671875L398.0431015625,37.796373671875L385.8361015625,37.796373671875ZM408.0451015625,53.165963671875005L408.0451015625,69.505663671875L402.4541015625,69.505663671875L402.4541015625,33.047637671875L408.0451015625,33.047637671875L408.0451015625,48.417163671875L427.2271015625,48.417163671875L427.2271015625,33.047637671875L432.8181015625,33.047637671875L432.8181015625,69.505663671875L427.2271015625,69.505663671875L427.2271015625,53.165963671875005L408.0451015625,53.165963671875005ZM455.1301015625,70.220463671875C459.9511015625,70.220463671875,463.6441015625,68.943963671875,466.2601015625,66.492963671875C468.8751015625,63.990963671875,470.2091015625,60.365563671875,470.2091015625,55.616863671874995L470.2091015625,33.047637671875L464.6181015625,33.047637671875L464.6181015625,55.718963671875C464.6181015625,58.986963671875,463.8491015625,61.386863671875,462.3621015625,62.969763671875C460.8231015625,64.552663671875,458.4121015625,65.369663671875,455.1301015625,65.369663671875C451.7961015625,65.369663671875,449.3851015625,64.552663671875,447.8461015625,62.969763671875C446.3081015625,61.386863671875,445.5901015625,58.986963671875,445.5901015625,55.718963671875L445.5901015625,33.047637671875L439.9991015625,33.047637671875L439.9991015625,55.616863671874995C439.9991015625,60.365563671875,441.3321015625,63.990963671875,444.0001015625,66.544063671875C446.5641015625,68.995063671875,450.2571015625,70.220463671875,455.1301015625,70.220463671875ZM494.1101015625,69.505663671875C498.0081015625,69.505663671875,501.0341015625,68.790763671875,503.1891015625,67.361063671875C505.7021015625,65.62496367187501,506.9841015625,62.969763671875,506.9841015625,59.293363671875C506.9841015625,56.842363671875,506.3691015625,54.850963671875,505.1381015625,53.370163671875005C503.9071015625,51.889363671875,502.0601015625,50.919163671875,499.6501015625,50.459663671875C501.4961015625,49.795863671875,502.8811015625,48.774663671875004,503.9071015625,47.447063671875C504.9331015625,46.017263671875,505.4451015625,44.281163671875,505.4451015625,42.238733671874996C505.4451015625,39.430343671875,504.4711015625,37.234693671875,502.5221015625,35.600723671875C500.4701015625,33.864623671875,497.7011015625,33.047637671875,494.1101015625,33.047637671875L477.3901015625,33.047637671875L477.3901015625,69.505663671875L494.1101015625,69.505663671875ZM482.9801015625,48.519363671875L492.6231015625,48.519363671875C495.1871015625,48.519363671875,497.0341015625,48.059763671875004,498.1621015625,47.191663671875C499.2911015625,46.272563671875,499.8551015625,44.842863671875,499.8551015625,42.902563671875C499.8551015625,41.064313671875,499.2911015625,39.736713671875,498.1621015625,38.919733671875C497.0341015625,38.051683671875,495.1871015625,37.643183671875,492.7261015625,37.643183671875L482.9801015625,37.643183671875L482.9801015625,48.519363671875ZM134.9126015625,65.262963671875L141.5205015625,65.262963671875C146.1306015625,65.262963671875,149.5626015625,64.117963671875,151.7140015625,61.880063671875C153.8142015625,59.642163671875,154.8899015625,56.207363671875,154.8899015625,51.523363671875C154.8899015625,46.735363671875,153.8142015625,43.300563671875,151.76530156249999,41.114693671875C149.6139015625,38.876823671875,146.2331015625,37.783903671875,141.6229015625,37.783903671875L134.9126015625,37.783903671875L134.9126015625,65.262963671875ZM493.3411015625,64.91006367187501L482.9801015625,64.91006367187501L482.9801015625,53.063763671875L493.4951015625,53.063763671875C496.1621015625,53.063763671875,498.1621015625,53.523363671875,499.4451015625,54.493463671875C500.7271015625,55.463663671875,501.3941015625,57.046563671875,501.3941015625,59.191163671875C501.3941015625,61.284663671874995,500.5221015625,62.816563671875,498.8801015625,63.786763671875C497.5471015625,64.501563671875,495.7001015625,64.91006367187501,493.3411015625,64.91006367187501Z" fill-rule="evenodd" fill="#FFFFFF" fill-opacity="1"/></g></g></svg>